<svg width="96" height="96" xmlns="http://www.w3.org/2000/svg" xmlns:xlink="http://www.w3.org/1999/xlink" overflow="hidden"><defs><clipPath id="clip0"><rect x="342" y="504" width="96" height="96"/></clipPath></defs><g clip-path="url(#clip0)" transform="translate(-342 -504)"><path d="M421 579 421 577 417 577 417 543 421 543 421 541 424 541 424 535 421 535 390 516 359 535 356 535 356 541 359 541 359 543 363 543 363 577 359 577 359 579 352 584 352 588 390 588 428 588 428 584 421 579ZM375 577 369 577 369 543 375 543 375 577ZM387 577 381 577 381 543 387 543 387 577ZM389 533C386.8 533 385 531.2 385 529 385 526.8 386.8 525 389 525 391.2 525 393 526.8 393 529 393 531.2 391.2 533 389 533ZM399 577 393 577 393 543 399 543 399 577ZM411 577 405 577 405 543 411 543 411 577Z"/></g></svg>