<svg width="96" height="96" xmlns="http://www.w3.org/2000/svg" xmlns:xlink="http://www.w3.org/1999/xlink" overflow="hidden"><defs><clipPath id="clip0"><rect x="649" y="543" width="96" height="96"/></clipPath></defs><g clip-path="url(#clip0)" transform="translate(-649 -543)"><path d="M655 567 663 567 663 615 655 615Z"/><path d="M683 567 691 567 691 615 683 615Z"/><path d="M667 567 671 567 671 615 667 615Z"/><path d="M675 567 679 567 679 615 675 615Z"/><path d="M695 567 703 567 703 615 695 615Z"/><path d="M723 567 731 567 731 615 723 615Z"/><path d="M707 567 711 567 711 615 707 615Z"/><path d="M715 567 719 567 719 615 715 615Z"/><path d="M735 567 739 567 739 615 735 615Z"/></g></svg>