<svg width="96" height="96" xmlns="http://www.w3.org/2000/svg" xmlns:xlink="http://www.w3.org/1999/xlink" overflow="hidden"><defs><clipPath id="clip0"><rect x="542" y="176" width="96" height="96"/></clipPath></defs><g clip-path="url(#clip0)" transform="translate(-542 -176)"><path d="M590 186C569.013 186 552 203.013 552 224 552 244.987 569.013 262 590 262 610.987 262 628 244.987 628 224 628 203.013 610.987 186 590 186ZM598.6 254.815C598.918 254.483 599.232 254.138 599.537 253.77L598 252.493C597.208 253.465 596.301 254.338 595.3 255.093L595.6 255.498C591.894 256.166 588.098 256.166 584.392 255.498L584.692 255.093C583.691 254.338 582.784 253.465 581.992 252.493L580.459 253.77C580.759 254.138 581.078 254.483 581.396 254.815 564.377 250.068 554.429 232.424 559.175 215.406 562.182 204.623 570.607 196.197 581.389 193.187 580.872 193.731 580.384 194.303 579.928 194.9L581.516 196.117C582.273 195.11 583.14 194.19 584.1 193.374L583.506 192.663C587.788 191.779 592.206 191.779 596.488 192.663L595.894 193.374C596.855 194.189 597.723 195.109 598.481 196.115L600.072 194.9C599.616 194.304 599.128 193.733 598.611 193.189 615.628 197.942 625.569 215.591 620.816 232.607 617.805 243.386 609.38 251.808 598.6 254.815Z"/><path d="M599.783 250 601.483 251.057C602.207 249.887 602.857 248.673 603.428 247.421L601.611 246.585C601.074 247.761 600.464 248.901 599.783 250Z"/><path d="M603.769 201.34C603.224 200.079 602.606 198.85 601.917 197.662L600.19 198.671C600.84 199.791 601.423 200.948 601.935 202.137Z"/><path d="M605.488 215.752 607.473 215.502C607.303 214.155 607.087 212.802 606.831 211.487L604.868 211.869C605.115 213.142 605.324 214.449 605.488 215.752Z"/><path d="M604.179 208.8 606.116 208.307C605.776 206.969 605.384 205.653 604.95 204.394L603.06 205.046C603.475 206.254 603.852 207.517 604.179 208.8Z"/><path d="M602.792 243.7 604.671 244.386C605.124 243.146 605.539 241.836 605.905 240.493L603.976 239.967C603.624 241.26 603.227 242.516 602.792 243.7Z"/><path d="M605.739 229.912 607.731 230.09C607.851 228.76 607.931 227.396 607.971 226.037L605.971 225.979C605.933 227.3 605.855 228.621 605.739 229.912Z"/><path d="M605.807 218.889C605.907 220.177 605.968 221.501 605.99 222.825L607.99 222.791C607.967 221.427 607.902 220.063 607.801 218.735Z"/><path d="M604.709 236.917 606.666 237.328C606.939 236.028 607.174 234.676 607.366 233.319L605.386 233.043C605.2 234.355 604.973 235.658 604.709 236.917Z"/><path d="M575.132 211.869 573.169 211.487C572.913 212.804 572.697 214.155 572.527 215.502L574.512 215.752C574.676 214.449 574.885 213.142 575.132 211.869Z"/><path d="M574.193 218.889 572.2 218.735C572.1 220.063 572.034 221.427 572.011 222.791L574.011 222.825C574.032 221.5 574.1 220.177 574.193 218.889Z"/><path d="M576.94 205.048 575.05 204.4C574.616 205.659 574.224 206.975 573.884 208.313L575.821 208.806C576.148 207.517 576.525 206.254 576.94 205.048Z"/><path d="M579.81 198.671 578.083 197.662C577.394 198.85 576.776 200.079 576.231 201.34L578.065 202.14C578.577 200.95 579.16 199.792 579.81 198.671Z"/><path d="M576.024 239.971 574.1 240.5C574.466 241.843 574.881 243.153 575.334 244.393L577.213 243.707C576.773 242.516 576.376 241.26 576.024 239.971Z"/><path d="M576.575 247.424C577.146 248.676 577.796 249.89 578.52 251.06L580.217 250C579.537 248.901 578.928 247.761 578.392 246.585Z"/><path d="M574.617 233.043 572.637 233.319C572.826 234.676 573.061 236.019 573.337 237.328L575.294 236.917C575.027 235.658 574.8 234.355 574.617 233.043Z"/><path d="M574.029 225.979 572.029 226.037C572.069 227.396 572.149 228.76 572.269 230.09L574.261 229.912C574.145 228.621 574.067 227.3 574.029 225.979Z"/></g></svg>