<svg width="96" height="96" xmlns="http://www.w3.org/2000/svg" xmlns:xlink="http://www.w3.org/1999/xlink" overflow="hidden"><defs><clipPath id="clip0"><rect x="601" y="408" width="96" height="96"/></clipPath></defs><g clip-path="url(#clip0)" transform="translate(-601 -408)"><path d="M651.4 477.4 648.6 474.6 667.6 455.6 670.4 458.4 651.4 477.4ZM641.6 467.6 660.6 448.6 663.4 451.4 644.4 470.4 641.6 467.6ZM634.6 460.6 653.6 441.6 656.4 444.4 637.4 463.4 634.6 460.6ZM629 440C626.8 440 625 438.2 625 436 625 433.8 626.8 432 629 432 631.2 432 633 433.8 633 436 633 438.2 631.2 440 629 440ZM678.2 457.2 650.2 429.2C649.4 428.4 648.4 428 647.4 428L629 428C624.6 428 621 431.6 621 436L621 454.3C621 455.4 621.4 456.4 622.2 457.1L650.2 485.1C651.8 486.7 654.3 486.7 655.9 485.1L678.2 462.8C679.7 461.3 679.7 458.7 678.2 457.2Z"/></g></svg>