<svg width="96" height="96" xmlns="http://www.w3.org/2000/svg" xmlns:xlink="http://www.w3.org/1999/xlink" overflow="hidden"><defs><clipPath id="clip0"><rect x="64" y="344" width="96" height="96"/></clipPath></defs><g clip-path="url(#clip0)" transform="translate(-64 -344)"><path d="M84 358 78 358 78 426 146 426 146 420 84 420 84 358Z"/><path d="M145.255 406.677C141.768 406.801 132.464 407.133 130.555 388.229 129 372.765 125.01 366.167 117.23 366.167 109.45 366.167 105.465 372.765 103.9 388.229 102 407.133 92.7 406.79 89.205 406.677 88.914 406.666 88.664 406.658 88.46 406.658L88.46 412.658C88.605 412.658 88.784 412.665 88.992 412.673 89.306 412.684 89.616 412.689 89.924 412.689 101.564 412.689 108.275 404.668 109.874 388.832 111.556 372.167 115.674 372.167 117.23 372.167 118.786 372.167 122.904 372.167 124.586 388.832 126.228 405.087 133.242 413.071 145.469 412.673 145.676 412.665 145.854 412.658 146 412.658L146 406.658C145.8 406.658 145.546 406.666 145.255 406.677Z"/><path d="M116.23 387.167 118.23 387.167 118.23 392.167 116.23 392.167Z"/><path d="M116.23 396.167 118.23 396.167 118.23 401.167 116.23 401.167Z"/><path d="M116.23 378.501 118.23 378.501 118.23 383.501 116.23 383.501Z"/><path d="M116.23 405.167 118.23 405.167 118.23 410 116.23 410Z"/></g></svg>