<svg width="96" height="96" xmlns="http://www.w3.org/2000/svg" xmlns:xlink="http://www.w3.org/1999/xlink" overflow="hidden"><defs><clipPath id="clip0"><rect x="289" y="317" width="96" height="96"/></clipPath></defs><g clip-path="url(#clip0)" transform="translate(-289 -317)"><path d="M362 399 312 399 312 337 323 337 323 343 351 343 351 337 362 337ZM337 329C338.657 329 340 330.343 340 332 340 333.657 338.657 335 337 335 335.343 335 334 333.657 334 332 333.973 330.37 335.272 329.027 336.901 329 336.934 328.999 336.967 328.999 337 329ZM364 331 347 331 347 329C347 326.791 345.209 325 343 325L331 325C328.791 325 327 326.791 327 329L327 331 310 331C307.791 331 306 332.791 306 335L306 401C306 403.209 307.791 405 310 405L364 405C366.209 405 368 403.209 368 401L368 335C368 332.791 366.209 331 364 331Z"/><path d="M339 351 356 351 356 355 339 355Z"/><path d="M339 363 356 363 356 367 339 367Z"/><path d="M339 375 356 375 356 379 339 379Z"/><path d="M339 387 356 387 356 391 339 391Z"/><path d="M318.707 352.8 320.8 350.707 323.4 353.307 330 346.707 332.093 348.8 323.4 357.493 318.707 352.8Z"/><path d="M318.707 364.8 320.8 362.707 323.4 365.307 330 358.707 332.093 360.8 323.4 369.493 318.707 364.8Z"/><path d="M318.707 376.8 320.8 374.707 323.4 377.307 330 370.707 332.093 372.8 323.4 381.493 318.707 376.8Z"/><path d="M318.707 388.8 320.8 386.707 323.4 389.307 330 382.707 332.093 384.8 323.4 393.493 318.707 388.8Z"/></g></svg>