<svg width="96" height="96" xmlns="http://www.w3.org/2000/svg" xmlns:xlink="http://www.w3.org/1999/xlink" overflow="hidden"><defs><clipPath id="clip0"><rect x="802" y="399" width="96" height="96"/></clipPath></defs><g clip-path="url(#clip0)" transform="translate(-802 -399)"><path d="M885 448C884.5 448 884.1 447.7 883.8 447.4 883.3 446.9 883 446 883 445.1 883 443.8 883.9 442.8 884.7 442.2L884.8 442.1C886.7 443.1 887 444.1 887 445 887 446.6 886.1 448 885 448ZM857.8 428.3C857.5 429 856.7 429.5 856 429.5 855.7 429.5 855.4 429.4 855.2 429.3 852 427.8 848.5 427 845.2 427 843.3 427 841.4 427.3 839.5 427.8 838.4 428.1 837.3 427.5 837 426.4 836.7 425.3 837.3 424.2 838.4 423.9 840.6 423.3 842.9 423 845.1 423 848.9 423 853 423.9 856.7 425.6 857.8 426.1 858.3 427.3 857.8 428.3ZM892.3 436C889.8 435.6 886.7 436.3 884.2 437.7 881.9 437.2 878.4 437.2 875.2 438.3 870.5 427.1 857.4 419 845 419 840.7 419 836.4 420 832.5 421.8L820.2 416C819.4 415.6 818.5 416.4 818.8 417.2L822.8 428.5C820.4 431 818.4 433.9 817 437.1 816.8 437.7 816.3 438.1 815.6 438.3L812 439.2C810.2 439.6 809 441.2 809 443.1L809 450.9C809 452.7 810.2 454.3 812 454.8L815.7 455.7C816.3 455.9 816.8 456.3 817.1 456.9 818.8 460.8 821.4 464.3 824.6 467.2 824.9 467.5 825.2 467.9 825.3 468.4L826.8 477.5C827 478.5 827.8 479.2 828.8 479.2L835.4 479.2C836.4 479.2 837.2 478.5 837.4 477.5L837.9 474.3C840.2 474.9 842.6 475.2 845.1 475.2 847.8 475.2 850.6 474.8 853.2 474.1L853.8 477.5C854 478.5 854.8 479.2 855.8 479.2L862.4 479.2C863.4 479.2 864.2 478.5 864.4 477.5L865.9 468.4C866 467.9 866.2 467.5 866.6 467.2 872.7 461.9 877 454.9 877 447 877 445.3 876.8 443.7 876.4 442.1 877.6 441.7 878.9 441.4 880.1 441.4 879.4 442.5 879 443.7 879 445 878.9 447 879.7 448.9 881 450.3 882.1 451.4 883.5 452.1 885 452.1 888.3 452.1 891 449 891 445.1 891 443.2 890.3 441.5 888.9 440.2 889.9 440 890.8 439.9 891.7 440 892.8 440.2 893.8 439.4 894 438.3 894.1 437.2 893.4 436.2 892.3 436Z"/></g></svg>