<svg width="96" height="96" xmlns="http://www.w3.org/2000/svg" xmlns:xlink="http://www.w3.org/1999/xlink" overflow="hidden"><defs><clipPath id="clip0"><rect x="774" y="177" width="96" height="96"/></clipPath></defs><g clip-path="url(#clip0)" transform="translate(-774 -177)"><path d="M814.733 263.185 860 252.259 860 202.539 827.054 186.85 784 196.244 784 246.637ZM826.327 193.15 847.865 203.406 830.429 207.314 815.581 210.642 795.562 199.862ZM790 243.053 790 203.682 812.145 215.607 812.145 254.978ZM854 247.535 818.145 256.19 818.145 216.217 833.729 212.723 854 208.18Z"/><path d="M825.69 195.186 827.69 195.186 827.69 199.186 825.69 199.186Z"/><path d="M825.69 216.186 827.69 216.186 827.69 220.186 825.69 220.186Z"/><path d="M825.69 223.186 827.69 223.186 827.69 227.186 825.69 227.186Z"/><path d="M825.69 202.186 827.69 202.186 827.69 206.186 825.69 206.186Z"/><path d="M825.69 230.186 827.69 230.186 827.69 234.186 825.69 234.186Z"/><path d="M840.282 243.431 841.107 241.609 844.751 243.258 843.927 245.08Z"/><path d="M820.977 236.408 824.886 235.556 825.311 237.51 821.403 238.362Z"/><path d="M793.621 242.377 797.529 241.525 797.955 243.479 794.047 244.331Z"/><path d="M833.904 240.547 834.728 238.725 838.372 240.373 837.548 242.195Z"/><path d="M846.66 246.316 847.484 244.494 851.129 246.143 850.304 247.965Z"/><path d="M827.527 237.661 828.352 235.839 831.996 237.487 831.172 239.31Z"/><path d="M800.46 240.885 804.368 240.033 804.794 241.988 800.885 242.839Z"/><path d="M807.299 239.393 811.208 238.542 811.633 240.496 807.725 241.347Z"/></g></svg>