<svg width="96" height="96" xmlns="http://www.w3.org/2000/svg" xmlns:xlink="http://www.w3.org/1999/xlink" overflow="hidden"><defs><clipPath id="clip0"><rect x="309" y="173" width="96" height="96"/></clipPath></defs><g clip-path="url(#clip0)" transform="translate(-309 -173)"><path d="M356.808 177.917 311 233.366 337.216 261.219 402.969 249.994ZM357.759 190.529 393.031 245.6 342.289 254.267ZM350.51 194.961 336.689 251.9 319 233.107Z"/><path d="M366.724 230.143 367.771 228.438 371.179 230.53 370.132 232.235Z"/><path d="M360.779 217.861 362.759 217.579 363.323 221.539 361.343 221.821Z"/><path d="M372.689 233.806 373.735 232.101 377.143 234.193 376.097 235.898Z"/><path d="M384.64 241.103 385.686 239.398 389.096 241.491 388.049 243.195Z"/><path d="M378.656 237.481 379.702 235.777 383.111 237.87 382.065 239.574Z"/><path d="M359.789 210.932 361.768 210.65 362.333 214.61 360.353 214.892Z"/><path d="M362.129 227.291 364.184 228.552 365.23 226.847 363.977 226.078 363.752 224.505 361.771 224.787 362.129 227.291Z"/><path d="M357.811 197.069 359.791 196.786 360.358 200.746 358.377 201.029Z"/><path d="M358.801 203.999 360.782 203.716 361.348 207.676 359.367 207.959Z"/><path d="M328.611 230.703 332.576 230.176 332.839 232.158 328.874 232.686Z"/><path d="M321.671 231.63 325.636 231.103 325.9 233.085 321.935 233.612Z"/><path d="M335.548 229.778 339.513 229.251 339.777 231.234 335.812 231.761Z"/><path d="M356.366 227.003 360.331 226.476 360.594 228.458 356.629 228.986Z"/><path d="M349.407 227.924 353.372 227.396 353.636 229.378 349.671 229.906Z"/></g></svg>